<svg viewBox="0 0 197 175" xmlns="http://www.w3.org/2000/svg">
  <path d="m191.78 152.83c-.79-4.2-2.32-8.87-4.61-14.03-2.28-5.16-5.68-10.55-10.18-16.19 1.47-4.17 2.38-8.37 2.75-12.59s.55-7.69.55-10.4c0-6.14-.99-13.23-2.96-21.26s-5.23-16.4-9.76-25.1c-4.54-8.71-10.64-17.26-18.3-25.65-7.66-8.4-17.24-16.06-28.74-22.99 3.21 4.51 6.54 9.8 9.97 15.89 3.44 6.09 6.37 12.99 8.79 20.71s3.63 16.34 3.63 25.86c0 5.13-.56 10.25-1.69 15.38s-2.28 9.1-3.47 11.92c-5.01-2.87-10.76-6.62-17.24-11.24s-13.24-9.72-20.28-15.3-13.99-11.28-20.83-17.11c-6.85-5.83-13.16-11.41-18.93-16.73-5.78-5.32-10.58-10.02-14.41-14.07 7.66 11.78 16 23.12 25.02 34.02s18.54 21.93 28.57 33.09c-13.52-8.56-26.6-17.62-39.22-27.17s-24.79-19.59-36.51-30.13c11.27 16.4 24.14 32.58 38.62 48.56 14.48 15.97 31.1 31.54 49.87 46.7-3.55 1.97-7.25 3.76-11.11 5.37s-8.18 2.89-12.97 3.85-10.31 1.44-16.57 1.44c-5.75 0-11.71-.63-17.88-1.9s-12.23-3-18.17-5.2-11.52-4.7-16.73-7.52-9.73-5.78-13.57-8.87c2.82 4.62 6.54 9.59 11.16 14.92s10.03 10.58 16.23 15.76 13.11 9.9 20.75 14.16c7.63 4.25 15.9 7.65 24.81 10.18 8.9 2.54 18.34 3.8 28.31 3.8 6.37 0 11.92-.49 16.65-1.48s8.93-2.23 12.59-3.72 7.06-2.97 10.18-4.44c3.13-1.46 6.25-2.69 9.38-3.68s6.55-1.48 10.27-1.48c5.13 0 9.3.92 12.51 2.75s5.7 3.89 7.48 6.17 3.06 4.1 3.85 5.45c.34.68.76 1.1 1.27 1.27s.93-.37 1.27-1.61c.23-.9.42-1.93.59-3.08s.25-2.47.25-3.93c0-2.7-.39-6.16-1.18-10.35zm-11.05 1.74c-3.96-2.26-9-3.4-14.99-3.4-4.21 0-8.17.58-11.77 1.71-3.32 1.05-6.69 2.37-10 3.92-3.04 1.42-6.39 2.88-9.95 4.33-3.37 1.37-7.31 2.53-11.73 3.45-4.38.91-9.63 1.37-15.63 1.37-9.46 0-18.53-1.22-26.94-3.61-8.49-2.42-16.48-5.7-23.74-9.74-7.33-4.08-14.05-8.67-19.97-13.62-3.49-2.92-6.74-5.88-9.73-8.86 2.51 1.1 5.08 2.13 7.7 3.1 6.16 2.28 12.52 4.09 18.9 5.41 6.47 1.33 12.82 2 18.88 2 6.56 0 12.46-.52 17.55-1.53 5.09-1.02 9.77-2.41 13.91-4.13 4.02-1.67 7.93-3.56 11.62-5.61l6.48-3.6-5.77-4.66c-18.48-14.92-35.06-30.46-49.3-46.16-3.92-4.32-7.73-8.68-11.43-13.06.86.66 1.73 1.32 2.6 1.98 9.33 7.06 19.01 13.92 28.89 20.49 6.33 4.21 12.89 8.06 19.66 11.54l10.59 5.44-5.06-6.76c-5.24-7-10.78-13.77-16.55-20.34-4.16-4.73-8.24-9.46-12.21-14.14 4.76 3.96 9.58 7.88 14.4 11.7 7.07 5.6 13.96 10.8 20.49 15.45 6.58 4.69 12.52 8.56 17.66 11.51l4.91 2.81 2.19-5.21c1.31-3.13 2.54-7.31 3.74-12.78 1.2-5.46 1.81-10.99 1.81-16.46 0-9.99-1.3-19.19-3.86-27.36-1.88-5.98-4.08-11.56-6.57-16.65 2.91 2.56 5.61 5.2 8.08 7.91 7.34 8.04 13.24 16.31 17.56 24.59 4.33 8.31 7.47 16.38 9.34 23.98s2.81 14.35 2.81 20.06c0 2.54-.18 5.9-.53 9.96-.33 3.79-1.16 7.61-2.48 11.37l-.92 2.62 1.73 2.16c4.22 5.27 7.42 10.35 9.52 15.09 2.12 4.78 3.55 9.13 4.26 12.93.43 2.28.73 4.32.91 6.1-1.92-1.93-4.28-3.7-7.04-5.28z" fill="#efefef"/>
</svg> 